<mxfile host="app.diagrams.net" modified="2020-11-30T11:29:56.505Z" agent="5.0 (Windows)" etag="Bajdi-EAVO5w0QXnZPUU" version="13.9.9" type="github">
  <diagram id="6a731a19-8d31-9384-78a2-239565b7b9f0" name="Page-1">
    <mxGraphModel dx="1102" dy="1119" grid="1" gridSize="10" guides="1" tooltips="1" connect="1" arrows="1" fold="1" page="1" pageScale="1" pageWidth="1169" pageHeight="827" background="#ffffff" math="0" shadow="0">
      <root>
        <mxCell id="0" />
        <mxCell id="1" parent="0" />
        <mxCell id="1749" value="JDI Light" style="rounded=1;whiteSpace=wrap;html=1;shadow=0;labelBackgroundColor=none;strokeColor=none;strokeWidth=3;fillColor=#2F5B7C;fontFamily=Helvetica;fontSize=16;fontColor=#FFFFFF;align=center;fontStyle=1;spacing=5;arcSize=7;perimeterSpacing=2;" parent="1" vertex="1">
          <mxGeometry x="190" y="20" width="150" height="70" as="geometry" />
        </mxCell>
        <mxCell id="1760" value="ML Component" style="rounded=1;whiteSpace=wrap;html=1;shadow=0;labelBackgroundColor=none;strokeColor=none;strokeWidth=3;fillColor=#1699d3;fontFamily=Helvetica;fontSize=14;fontColor=#FFFFFF;align=center;spacing=5;fontStyle=1;arcSize=7;perimeterSpacing=2;" parent="1" vertex="1">
          <mxGeometry x="295" y="700" width="140" height="60" as="geometry" />
        </mxCell>
        <mxCell id="nzmiaOpuZqPqcDJIjmyn-1779" value="HTML5" style="whiteSpace=wrap;html=1;rounded=1;shadow=0;fontSize=16;fontColor=#FFFFFF;fontStyle=1;strokeColor=none;strokeWidth=3;fillColor=#2F5B7C;spacing=5;arcSize=7;" vertex="1" parent="1">
          <mxGeometry x="410" y="150" width="120" height="60" as="geometry" />
        </mxCell>
        <mxCell id="nzmiaOpuZqPqcDJIjmyn-1784" value="&lt;div&gt;Angular&lt;/div&gt;" style="whiteSpace=wrap;html=1;rounded=1;shadow=0;fontSize=16;fontColor=#FFFFFF;fontStyle=1;strokeColor=none;strokeWidth=3;fillColor=#2F5B7C;spacing=5;arcSize=7;" vertex="1" parent="1">
          <mxGeometry x="110" y="150" width="120" height="60" as="geometry" />
        </mxCell>
        <mxCell id="nzmiaOpuZqPqcDJIjmyn-1786" value="Bootstrap" style="whiteSpace=wrap;html=1;rounded=1;shadow=0;fontSize=16;fontColor=#FFFFFF;fontStyle=1;strokeColor=none;strokeWidth=3;fillColor=#2F5B7C;spacing=5;arcSize=7;" vertex="1" parent="1">
          <mxGeometry x="250" y="150" width="120" height="60" as="geometry" />
        </mxCell>
        <mxCell id="nzmiaOpuZqPqcDJIjmyn-1787" value="" style="edgeStyle=none;rounded=0;jumpStyle=none;html=1;shadow=0;labelBackgroundColor=none;startArrow=none;startFill=0;endArrow=classic;endFill=1;jettySize=auto;orthogonalLoop=1;strokeColor=#2F5B7C;strokeWidth=3;fontFamily=Helvetica;fontSize=16;fontColor=#23445D;spacing=5;entryX=0.5;entryY=0;entryDx=0;entryDy=0;exitX=0.25;exitY=1;exitDx=0;exitDy=0;" edge="1" parent="1" source="1749" target="nzmiaOpuZqPqcDJIjmyn-1784">
          <mxGeometry relative="1" as="geometry">
            <mxPoint x="355.28112449799187" y="172" as="sourcePoint" />
            <mxPoint x="210.70281124498" y="352" as="targetPoint" />
          </mxGeometry>
        </mxCell>
        <mxCell id="nzmiaOpuZqPqcDJIjmyn-1789" value="" style="edgeStyle=none;rounded=0;jumpStyle=none;html=1;shadow=0;labelBackgroundColor=none;startArrow=none;startFill=0;endArrow=classic;endFill=1;jettySize=auto;orthogonalLoop=1;strokeColor=#2F5B7C;strokeWidth=3;fontFamily=Helvetica;fontSize=16;fontColor=#23445D;spacing=5;entryX=0.5;entryY=0;entryDx=0;entryDy=0;" edge="1" parent="1" source="1749" target="nzmiaOpuZqPqcDJIjmyn-1786">
          <mxGeometry relative="1" as="geometry">
            <mxPoint x="375.28112449799187" y="192" as="sourcePoint" />
            <mxPoint x="230.70281124498" y="372" as="targetPoint" />
          </mxGeometry>
        </mxCell>
        <mxCell id="nzmiaOpuZqPqcDJIjmyn-1790" value="" style="edgeStyle=none;rounded=0;jumpStyle=none;html=1;shadow=0;labelBackgroundColor=none;startArrow=none;startFill=0;endArrow=classic;endFill=1;jettySize=auto;orthogonalLoop=1;strokeColor=#2F5B7C;strokeWidth=3;fontFamily=Helvetica;fontSize=16;fontColor=#23445D;spacing=5;entryX=0.5;entryY=0;entryDx=0;entryDy=0;" edge="1" parent="1" source="1749" target="nzmiaOpuZqPqcDJIjmyn-1779">
          <mxGeometry relative="1" as="geometry">
            <mxPoint x="415.7981502612456" y="172" as="sourcePoint" />
            <mxPoint x="662.2" y="468.02" as="targetPoint" />
          </mxGeometry>
        </mxCell>
        <mxCell id="nzmiaOpuZqPqcDJIjmyn-1791" value="&lt;div&gt;Android&lt;/div&gt;" style="whiteSpace=wrap;html=1;rounded=1;shadow=0;fontSize=16;fontColor=#FFFFFF;fontStyle=1;strokeColor=none;strokeWidth=3;fillColor=#2F5B7C;spacing=5;arcSize=7;" vertex="1" parent="1">
          <mxGeometry x="560" y="150" width="120" height="60" as="geometry" />
        </mxCell>
        <mxCell id="nzmiaOpuZqPqcDJIjmyn-1792" value="&lt;div&gt;iOS&lt;br&gt;&lt;/div&gt;" style="whiteSpace=wrap;html=1;rounded=1;shadow=0;fontSize=16;fontColor=#FFFFFF;fontStyle=1;strokeColor=none;strokeWidth=3;fillColor=#2F5B7C;spacing=5;arcSize=7;" vertex="1" parent="1">
          <mxGeometry x="710" y="150" width="120" height="60" as="geometry" />
        </mxCell>
        <mxCell id="nzmiaOpuZqPqcDJIjmyn-1793" value="" style="edgeStyle=none;rounded=0;jumpStyle=none;html=1;shadow=0;labelBackgroundColor=none;startArrow=none;startFill=0;endArrow=classic;endFill=1;jettySize=auto;orthogonalLoop=1;strokeColor=#2F5B7C;strokeWidth=3;fontFamily=Helvetica;fontSize=16;fontColor=#23445D;spacing=5;entryX=0.5;entryY=0;entryDx=0;entryDy=0;exitX=1;exitY=0.5;exitDx=0;exitDy=0;" edge="1" parent="1" source="1749" target="nzmiaOpuZqPqcDJIjmyn-1792">
          <mxGeometry relative="1" as="geometry">
            <mxPoint x="415.7981502612456" y="172" as="sourcePoint" />
            <mxPoint x="720" y="250" as="targetPoint" />
          </mxGeometry>
        </mxCell>
        <mxCell id="nzmiaOpuZqPqcDJIjmyn-1794" value="" style="edgeStyle=none;rounded=0;jumpStyle=none;html=1;shadow=0;labelBackgroundColor=none;startArrow=none;startFill=0;endArrow=classic;endFill=1;jettySize=auto;orthogonalLoop=1;strokeColor=#2F5B7C;strokeWidth=3;fontFamily=Helvetica;fontSize=16;fontColor=#23445D;spacing=5;entryX=0.5;entryY=0;entryDx=0;entryDy=0;" edge="1" parent="1" source="1749" target="nzmiaOpuZqPqcDJIjmyn-1791">
          <mxGeometry relative="1" as="geometry">
            <mxPoint x="460" y="154" as="sourcePoint" />
            <mxPoint x="790" y="170" as="targetPoint" />
          </mxGeometry>
        </mxCell>
        <mxCell id="nzmiaOpuZqPqcDJIjmyn-1797" value="" style="edgeStyle=none;rounded=0;jumpStyle=none;html=1;shadow=0;labelBackgroundColor=none;startArrow=none;startFill=0;endArrow=classic;endFill=1;jettySize=auto;orthogonalLoop=1;strokeColor=#2F5B7C;strokeWidth=3;fontFamily=Helvetica;fontSize=16;fontColor=#23445D;spacing=5;entryX=0;entryY=0.5;entryDx=0;entryDy=0;exitX=1;exitY=0.5;exitDx=0;exitDy=0;" edge="1" parent="1" source="nzmiaOpuZqPqcDJIjmyn-1798" target="1760">
          <mxGeometry relative="1" as="geometry">
            <mxPoint x="270" y="740" as="sourcePoint" />
            <mxPoint x="210" y="770" as="targetPoint" />
          </mxGeometry>
        </mxCell>
        <mxCell id="nzmiaOpuZqPqcDJIjmyn-1798" value="Screenshot" style="whiteSpace=wrap;html=1;aspect=fixed;" vertex="1" parent="1">
          <mxGeometry x="100" y="650" width="160" height="160" as="geometry" />
        </mxCell>
        <mxCell id="nzmiaOpuZqPqcDJIjmyn-1800" value="" style="rounded=0;whiteSpace=wrap;html=1;" vertex="1" parent="1">
          <mxGeometry x="475" y="700" width="120" height="60" as="geometry" />
        </mxCell>
        <mxCell id="nzmiaOpuZqPqcDJIjmyn-1801" value="" style="rounded=0;whiteSpace=wrap;html=1;" vertex="1" parent="1">
          <mxGeometry x="475" y="700" width="120" height="60" as="geometry" />
        </mxCell>
        <mxCell id="nzmiaOpuZqPqcDJIjmyn-1802" value="" style="rounded=0;whiteSpace=wrap;html=1;" vertex="1" parent="1">
          <mxGeometry x="485" y="710" width="120" height="60" as="geometry" />
        </mxCell>
        <mxCell id="nzmiaOpuZqPqcDJIjmyn-1803" value="" style="rounded=0;whiteSpace=wrap;html=1;" vertex="1" parent="1">
          <mxGeometry x="495" y="720" width="120" height="60" as="geometry" />
        </mxCell>
        <mxCell id="nzmiaOpuZqPqcDJIjmyn-1804" value="" style="rounded=0;whiteSpace=wrap;html=1;" vertex="1" parent="1">
          <mxGeometry x="505" y="730" width="120" height="60" as="geometry" />
        </mxCell>
        <mxCell id="nzmiaOpuZqPqcDJIjmyn-1805" value="List of elements w/coordinates" style="rounded=0;whiteSpace=wrap;html=1;" vertex="1" parent="1">
          <mxGeometry x="515" y="740" width="120" height="60" as="geometry" />
        </mxCell>
        <mxCell id="nzmiaOpuZqPqcDJIjmyn-1807" value="" style="edgeStyle=none;rounded=0;jumpStyle=none;html=1;shadow=0;labelBackgroundColor=none;startArrow=none;startFill=0;endArrow=classic;endFill=1;jettySize=auto;orthogonalLoop=1;strokeColor=#2F5B7C;strokeWidth=3;fontFamily=Helvetica;fontSize=16;fontColor=#23445D;spacing=5;exitX=1;exitY=0.5;exitDx=0;exitDy=0;entryX=0;entryY=0.5;entryDx=0;entryDy=0;" edge="1" parent="1" source="1760" target="nzmiaOpuZqPqcDJIjmyn-1801">
          <mxGeometry relative="1" as="geometry">
            <mxPoint x="367.3571049371792" y="432" as="sourcePoint" />
            <mxPoint x="550" y="760" as="targetPoint" />
          </mxGeometry>
        </mxCell>
        <mxCell id="nzmiaOpuZqPqcDJIjmyn-1809" value="Locator Recognizer" style="rounded=1;whiteSpace=wrap;html=1;shadow=0;labelBackgroundColor=none;strokeColor=none;strokeWidth=3;fillColor=#1699d3;fontFamily=Helvetica;fontSize=14;fontColor=#FFFFFF;align=center;spacing=5;fontStyle=1;arcSize=7;perimeterSpacing=2;" vertex="1" parent="1">
          <mxGeometry x="710" y="730" width="140" height="60" as="geometry" />
        </mxCell>
        <mxCell id="nzmiaOpuZqPqcDJIjmyn-1811" value="" style="rounded=0;whiteSpace=wrap;html=1;" vertex="1" parent="1">
          <mxGeometry x="970" y="710" width="120" height="60" as="geometry" />
        </mxCell>
        <mxCell id="nzmiaOpuZqPqcDJIjmyn-1812" value="" style="rounded=0;whiteSpace=wrap;html=1;" vertex="1" parent="1">
          <mxGeometry x="970" y="710" width="120" height="60" as="geometry" />
        </mxCell>
        <mxCell id="nzmiaOpuZqPqcDJIjmyn-1813" value="" style="rounded=0;whiteSpace=wrap;html=1;" vertex="1" parent="1">
          <mxGeometry x="980" y="720" width="120" height="60" as="geometry" />
        </mxCell>
        <mxCell id="nzmiaOpuZqPqcDJIjmyn-1814" value="" style="rounded=0;whiteSpace=wrap;html=1;" vertex="1" parent="1">
          <mxGeometry x="990" y="730" width="120" height="60" as="geometry" />
        </mxCell>
        <mxCell id="nzmiaOpuZqPqcDJIjmyn-1815" value="" style="rounded=0;whiteSpace=wrap;html=1;" vertex="1" parent="1">
          <mxGeometry x="1000" y="740" width="120" height="60" as="geometry" />
        </mxCell>
        <mxCell id="nzmiaOpuZqPqcDJIjmyn-1816" value="List of elements w/Locators" style="rounded=0;whiteSpace=wrap;html=1;" vertex="1" parent="1">
          <mxGeometry x="1010" y="750" width="120" height="60" as="geometry" />
        </mxCell>
        <mxCell id="nzmiaOpuZqPqcDJIjmyn-1818" value="" style="edgeStyle=none;rounded=0;jumpStyle=none;html=1;shadow=0;labelBackgroundColor=none;startArrow=none;startFill=0;endArrow=classic;endFill=1;jettySize=auto;orthogonalLoop=1;strokeColor=#2F5B7C;strokeWidth=3;fontFamily=Helvetica;fontSize=16;fontColor=#23445D;spacing=5;exitX=1;exitY=0.5;exitDx=0;exitDy=0;entryX=0;entryY=0.5;entryDx=0;entryDy=0;" edge="1" parent="1" source="nzmiaOpuZqPqcDJIjmyn-1805" target="nzmiaOpuZqPqcDJIjmyn-1809">
          <mxGeometry relative="1" as="geometry">
            <mxPoint x="437" y="730" as="sourcePoint" />
            <mxPoint x="475" y="730" as="targetPoint" />
          </mxGeometry>
        </mxCell>
        <mxCell id="nzmiaOpuZqPqcDJIjmyn-1819" value="" style="edgeStyle=none;rounded=0;jumpStyle=none;html=1;shadow=0;labelBackgroundColor=none;startArrow=none;startFill=0;endArrow=classic;endFill=1;jettySize=auto;orthogonalLoop=1;strokeColor=#2F5B7C;strokeWidth=3;fontFamily=Helvetica;fontSize=16;fontColor=#23445D;spacing=5;exitX=1;exitY=0.5;exitDx=0;exitDy=0;entryX=0;entryY=0.5;entryDx=0;entryDy=0;" edge="1" parent="1" source="nzmiaOpuZqPqcDJIjmyn-1809" target="nzmiaOpuZqPqcDJIjmyn-1812">
          <mxGeometry relative="1" as="geometry">
            <mxPoint x="635" y="770" as="sourcePoint" />
            <mxPoint x="708" y="760" as="targetPoint" />
          </mxGeometry>
        </mxCell>
        <mxCell id="nzmiaOpuZqPqcDJIjmyn-1821" value="&lt;div&gt;Page Object&lt;/div&gt;" style="whiteSpace=wrap;html=1;aspect=fixed;" vertex="1" parent="1">
          <mxGeometry x="995" y="890" width="130" height="130" as="geometry" />
        </mxCell>
        <mxCell id="nzmiaOpuZqPqcDJIjmyn-1822" value="" style="edgeStyle=none;rounded=0;jumpStyle=none;html=1;shadow=0;labelBackgroundColor=none;startArrow=none;startFill=0;endArrow=classic;endFill=1;jettySize=auto;orthogonalLoop=1;strokeColor=#2F5B7C;strokeWidth=3;fontFamily=Helvetica;fontSize=16;fontColor=#23445D;spacing=5;exitX=0.5;exitY=1;exitDx=0;exitDy=0;entryX=0.5;entryY=0;entryDx=0;entryDy=0;" edge="1" parent="1" source="nzmiaOpuZqPqcDJIjmyn-1816" target="nzmiaOpuZqPqcDJIjmyn-1821">
          <mxGeometry relative="1" as="geometry">
            <mxPoint x="852" y="760" as="sourcePoint" />
            <mxPoint x="970" y="740" as="targetPoint" />
          </mxGeometry>
        </mxCell>
        <mxCell id="nzmiaOpuZqPqcDJIjmyn-1823" value="Sent picture of element to AI" style="whiteSpace=wrap;html=1;rounded=1;shadow=0;fontSize=16;fontColor=#FFFFFF;fontStyle=1;strokeColor=none;strokeWidth=3;fillColor=#2F5B7C;spacing=5;arcSize=7;" vertex="1" parent="1">
          <mxGeometry x="270" y="290" width="120" height="60" as="geometry" />
        </mxCell>
        <mxCell id="nzmiaOpuZqPqcDJIjmyn-1825" value="AI lean process" style="whiteSpace=wrap;html=1;rounded=1;shadow=0;fontSize=16;fontColor=#FFFFFF;fontStyle=1;strokeColor=none;strokeWidth=3;fillColor=#2F5B7C;spacing=5;arcSize=7;" vertex="1" parent="1">
          <mxGeometry x="270" y="420" width="120" height="60" as="geometry" />
        </mxCell>
        <mxCell id="nzmiaOpuZqPqcDJIjmyn-1827" value="" style="edgeStyle=none;rounded=0;jumpStyle=none;html=1;shadow=0;labelBackgroundColor=none;startArrow=none;startFill=0;endArrow=classic;endFill=1;jettySize=auto;orthogonalLoop=1;strokeColor=#2F5B7C;strokeWidth=3;fontFamily=Helvetica;fontSize=16;fontColor=#23445D;spacing=5;exitX=0.5;exitY=1;exitDx=0;exitDy=0;" edge="1" parent="1" source="nzmiaOpuZqPqcDJIjmyn-1786" target="nzmiaOpuZqPqcDJIjmyn-1823">
          <mxGeometry relative="1" as="geometry">
            <mxPoint x="282.52631578947376" y="92" as="sourcePoint" />
            <mxPoint x="310" y="150" as="targetPoint" />
          </mxGeometry>
        </mxCell>
        <mxCell id="nzmiaOpuZqPqcDJIjmyn-1828" value="" style="edgeStyle=none;rounded=0;jumpStyle=none;html=1;shadow=0;labelBackgroundColor=none;startArrow=none;startFill=0;endArrow=classic;endFill=1;jettySize=auto;orthogonalLoop=1;strokeColor=#2F5B7C;strokeWidth=3;fontFamily=Helvetica;fontSize=16;fontColor=#23445D;spacing=5;exitX=0.5;exitY=1;exitDx=0;exitDy=0;entryX=0.75;entryY=0;entryDx=0;entryDy=0;" edge="1" parent="1" source="nzmiaOpuZqPqcDJIjmyn-1779" target="nzmiaOpuZqPqcDJIjmyn-1823">
          <mxGeometry relative="1" as="geometry">
            <mxPoint x="310" y="210" as="sourcePoint" />
            <mxPoint x="235" y="260" as="targetPoint" />
          </mxGeometry>
        </mxCell>
        <mxCell id="nzmiaOpuZqPqcDJIjmyn-1829" value="" style="edgeStyle=none;rounded=0;jumpStyle=none;html=1;shadow=0;labelBackgroundColor=none;startArrow=none;startFill=0;endArrow=classic;endFill=1;jettySize=auto;orthogonalLoop=1;strokeColor=#2F5B7C;strokeWidth=3;fontFamily=Helvetica;fontSize=16;fontColor=#23445D;spacing=5;exitX=0.75;exitY=1;exitDx=0;exitDy=0;entryX=0.25;entryY=0;entryDx=0;entryDy=0;" edge="1" parent="1" source="nzmiaOpuZqPqcDJIjmyn-1784" target="nzmiaOpuZqPqcDJIjmyn-1823">
          <mxGeometry relative="1" as="geometry">
            <mxPoint x="470" y="210" as="sourcePoint" />
            <mxPoint x="250" y="275" as="targetPoint" />
          </mxGeometry>
        </mxCell>
        <mxCell id="nzmiaOpuZqPqcDJIjmyn-1831" value="" style="edgeStyle=none;rounded=0;jumpStyle=none;html=1;shadow=0;labelBackgroundColor=none;startArrow=none;startFill=0;endArrow=classic;endFill=1;jettySize=auto;orthogonalLoop=1;strokeColor=#2F5B7C;strokeWidth=3;fontFamily=Helvetica;fontSize=16;fontColor=#23445D;spacing=5;exitX=0.5;exitY=1;exitDx=0;exitDy=0;entryX=1;entryY=0;entryDx=0;entryDy=0;" edge="1" parent="1" source="nzmiaOpuZqPqcDJIjmyn-1791" target="nzmiaOpuZqPqcDJIjmyn-1823">
          <mxGeometry relative="1" as="geometry">
            <mxPoint x="470" y="210" as="sourcePoint" />
            <mxPoint x="360" y="290" as="targetPoint" />
          </mxGeometry>
        </mxCell>
        <mxCell id="nzmiaOpuZqPqcDJIjmyn-1832" value="" style="edgeStyle=none;rounded=0;jumpStyle=none;html=1;shadow=0;labelBackgroundColor=none;startArrow=none;startFill=0;endArrow=classic;endFill=1;jettySize=auto;orthogonalLoop=1;strokeColor=#2F5B7C;strokeWidth=3;fontFamily=Helvetica;fontSize=16;fontColor=#23445D;spacing=5;exitX=0.5;exitY=1;exitDx=0;exitDy=0;entryX=1;entryY=0.5;entryDx=0;entryDy=0;" edge="1" parent="1" source="nzmiaOpuZqPqcDJIjmyn-1792" target="nzmiaOpuZqPqcDJIjmyn-1823">
          <mxGeometry relative="1" as="geometry">
            <mxPoint x="620" y="210" as="sourcePoint" />
            <mxPoint x="390" y="290" as="targetPoint" />
          </mxGeometry>
        </mxCell>
        <mxCell id="nzmiaOpuZqPqcDJIjmyn-1833" value="" style="edgeStyle=none;rounded=0;jumpStyle=none;html=1;shadow=0;labelBackgroundColor=none;startArrow=none;startFill=0;endArrow=classic;endFill=1;jettySize=auto;orthogonalLoop=1;strokeColor=#2F5B7C;strokeWidth=3;fontFamily=Helvetica;fontSize=16;fontColor=#23445D;spacing=5;exitX=0.5;exitY=1;exitDx=0;exitDy=0;" edge="1" parent="1" source="nzmiaOpuZqPqcDJIjmyn-1823">
          <mxGeometry relative="1" as="geometry">
            <mxPoint x="310" y="210" as="sourcePoint" />
            <mxPoint x="330" y="421" as="targetPoint" />
          </mxGeometry>
        </mxCell>
      </root>
    </mxGraphModel>
  </diagram>
</mxfile>
